<svg viewBox="0 0 400 300" fill="none" xmlns="http://www.w3.org/2000/svg"><path d="m235.085 186.401 64.114-71.467-35.39-4.019-58.821 64.605 30.097 10.881ZM252.729 88.072c-.784 0-1.471.294-1.961.882-1.764 2.55-4.803 3.726-8.921 3.432-3.333-.197-6.176-1.373-6.176-1.373-1.176-.49-2.451.098-2.941 1.274-.49 1.177.098 2.451 1.274 2.941.098.099 3.432 1.373 7.451 1.667 5.686.392 10.196-1.47 12.941-5.294.686-.98.49-2.352-.491-3.137-.392-.196-.784-.392-1.176-.392ZM221.848 79.151l15.685 4.51c.98.294 1.569 1.274 1.275 2.254-.197.785-.883 1.373-1.667 1.373l-8.333.294-6.96-8.43Z" fill="#FFC7DE" stroke="#000" stroke-width=".98" stroke-miterlimit="10"/><path d="M256.26 92.485c-.392 0-.882.098-1.274.294-.294.196-7.353 4.02-19.019.49-1.176-.392-2.451.294-2.745 1.47-.392 1.177.294 2.451 1.471 2.746 13.724 4.215 22.155-.687 22.547-.883a2.136 2.136 0 0 0 .785-3.039c-.294-.686-.981-1.078-1.765-1.078Z" fill="#FFC7DE" stroke="#000" stroke-width=".98" stroke-miterlimit="10"/><path d="m217.241 77.778 2.941.883c5.392 1.568 10.196 4.901 13.627 9.313 2.353 3.039 5.294 6.274 8.039 7.647 7.646 3.235 12.94 1.96 13.234 1.862a2.801 2.801 0 0 1 1.275 0c.686.196 1.274.784 1.47 1.569.294 1.176-.392 2.451-1.568 2.745-.294.098-5.098 1.274-12.254-.785-1.961-.588-3.922-.882-5.882-1.078-4.216-.392-9.706-.49-17.058-2.94l-8.137-2.55" fill="#FFC7DE"/><path d="m217.241 77.778 2.941.883c5.392 1.568 10.196 4.901 13.627 9.313 2.353 3.039 5.294 6.274 8.039 7.647 7.646 3.235 12.94 1.96 13.234 1.862a2.801 2.801 0 0 1 1.275 0c.686.196 1.274.784 1.47 1.569.294 1.176-.392 2.451-1.568 2.745-.294.098-5.098 1.274-12.254-.785-1.961-.588-3.922-.882-5.882-1.078-4.216-.392-9.706-.49-17.058-2.94l-8.137-2.55" stroke="#000" stroke-width=".98" stroke-miterlimit="10"/><path d="M246.063 96.799s-4.706-1.176-3.921-2.255l-2.255-.196c.098 0 2.647 1.863 6.176 2.451ZM241.359 94.445s-1.96-.49-1.862-2.353l-2.647-.588s1.764 1.862 3.137 2.843l1.372.098ZM233.513 87.388l.981-.098s-3.333-2.06-5.588-6.177l-5.98-1.666s5.784 2.647 10.587 7.94Z" fill="#000"/><path d="M126.562 62.582h43.724c3.921 0 7.94.49 11.764 1.569l44.409 11.764-6.372 20.881-36.665-11.176h-48.625l-8.235-23.038Z" fill="#FF006C" stroke="#000" stroke-width=".98" stroke-miterlimit="10" stroke-linecap="round" stroke-linejoin="round"/><path d="M70.879 207.967 58.82 245.318l28.43 12.156 11.078-12.156 23.332-88.133-50.781 50.782Z" fill="#FFC7DE" stroke="#000" stroke-width=".98" stroke-miterlimit="10"/><path d="m60.389 240.515-1.569 4.804 28.43 12.156 11.078-12.156 1.275-4.804H60.389Z" fill="#fff" stroke="#000" stroke-width=".98" stroke-miterlimit="10"/><path d="m123.424 253.455-14.019 9.411H24.409l-13.92-9.411" stroke="#000" stroke-width=".98" stroke-miterlimit="10" stroke-linecap="round" stroke-linejoin="round"/><path d="m221.949 144.638-39.704-37.057-49.213 6.568 5.98 5L95.877 146.5c-4.901 2.941-8.627 7.647-10.293 13.137L64.408 225.81h41.763l17.058-50.684 41.958-22.744 38.626 35.783c9.803 8.333 24.508 7.352 33.233-2.255l56.86-64.997-40.782-9.215-31.175 32.94Z" fill="#DEDFEA" stroke="#000" stroke-width=".98" stroke-miterlimit="10" stroke-linecap="round" stroke-linejoin="round"/><path d="M165.188 152.383c20.489-10.98 27.351-29.606 17.057-44.9l-17.057 44.9Z" fill="#DEDFEA"/><path d="M165.188 152.383c20.489-10.98 27.351-29.606 17.057-44.9" stroke="#000" stroke-width=".98" stroke-miterlimit="10"/><path d="M178.616 38.174a3.334 3.334 0 1 0 0-6.668 3.334 3.334 0 0 0 0 6.668ZM161.559 28.467a15.032 15.032 0 0 0-10.882 3.235 5.887 5.887 0 0 1-7.254 0c-2.059-1.569-5.196-2.94-9.411-2.94-3.334.097-6.471.881-8.726 2.94-4.509 4.117-6.764-1.96-11.862-3.431-3.529-.98-14.313 31.567-4.705 31.469 4.019-.098 6.862-1.373 8.921-2.843 2.353-1.765 5.686-1.863 8.137-.196 2.549 1.764 5.588 2.745 8.823 2.647 3.431-.098 5.98-.98 7.941-2.255 3.039-1.863 6.862-2.059 9.999-.294 2.353 1.372 5.098 2.157 7.941 2.059 9.019-.098 16.077-8.04 14.901-17.255-.98-7.058-6.666-12.548-13.823-13.136Z" fill="#000"/><path d="M106.856 60.328c9.096 0 16.47-7.374 16.47-16.47s-7.374-16.47-16.47-16.47-16.47 7.374-16.47 16.47 7.374 16.47 16.47 16.47Z" fill="#FFC7DE" stroke="#000" stroke-width=".98" stroke-miterlimit="10"/><path d="M116.071 30.033c2.745 1.569 10.882 9.313 5.686 21.175-2.157 4.902-6.764 6.667-6.764 6.667-5.785-3.235-3.824-13.137-4.314-13.137-3.431-.098-6.96-2.157-9.019-7.352-1.667-4.216-.588-8.725-.588-8.725 2.058-.687 8.431-2.255 14.999 1.372Z" fill="#000"/><path d="M111.854 51.896a4.706 4.706 0 1 0 0-9.412 4.706 4.706 0 0 0 0 9.412Z" fill="#FFC7DE"/><path d="M97.738 30.329s3.235.98 7.353-.196l-1.275-2.451c.098 0-3.921.294-6.078 2.647Z" fill="#000"/><path d="m113.422 45.425-3.137 1.47" stroke="#000" stroke-width=".735" stroke-miterlimit="10" stroke-linecap="round" stroke-linejoin="round"/><path d="M98.623 30.035s-3.039-.392-3.039-3.823" stroke="#000" stroke-width=".98" stroke-miterlimit="10"/><path d="m182.244 107.581-34.312-34.213c-11.568-11.274-29.999-11.569-41.959-.687l-7.254 7.157 37.743 41.174 45.782-13.431Z" fill="#FF006C" stroke="#000" stroke-width=".98" stroke-miterlimit="10"/><path d="M147.933 73.269c-12.548-13.529-28.528-13.627-38.429-4.412L82.25 92.68c-10.686 3.039-14.215 7.45-14.215 13.822 0 6.471 5.098 11.765 11.568 12.157 6.96.392 11.764-1.863 15.392-4.216 8.823-5.784 35.488-25.489 35.488-25.489" fill="#FF006C"/><path d="M147.933 73.269c-12.548-13.529-28.528-13.627-38.429-4.412L82.25 92.68c-10.686 3.039-14.215 7.45-14.215 13.822 0 6.471 5.098 11.765 11.568 12.157 6.96.392 11.764-1.863 15.392-4.216 8.823-5.784 35.488-25.489 35.488-25.489" stroke="#000" stroke-width=".98" stroke-miterlimit="10" stroke-linecap="round" stroke-linejoin="round"/><path d="M98.33 245.32c-2.45 0-4.705 1.078-6.274 3.039l-1.274 1.568c-1.275 1.569-3.824 1.373-4.902-.392l-.098-.098a7.983 7.983 0 0 0-6.96-4.019h-20l-19.9 12.058c-.883.588-1.47 1.568-1.47 2.647v2.843h56.467l4.411-17.646Z" fill="#B6BBE2" stroke="#000" stroke-width=".98" stroke-miterlimit="10"/><path d="M37.451 259.927h57.056l-.686 2.941H37.45v-2.941ZM299.199 114.934l7.352-7.941-28.331-12.156-11.176 12.156-3.235 3.922 35.39 4.019Z" fill="#fff" stroke="#000" stroke-width=".98" stroke-miterlimit="10"/><path d="M267.043 106.994c2.451 0 4.706-1.078 6.274-3.039l1.275-1.569c1.274-1.568 3.823-1.372 4.901.392l.098.099a7.987 7.987 0 0 0 6.961 4.019h20.097l19.901-12.058c.882-.588 1.47-1.569 1.47-2.647v-2.843h-56.467l-4.51 17.646Z" fill="#B6BBE2" stroke="#000" stroke-width=".98" stroke-miterlimit="10"/><path d="M328.019 92.385h-57.154l.686-2.94h56.468v2.94Z" fill="#fff" stroke="#000" stroke-width=".98" stroke-miterlimit="10"/><path d="M136.364 62.878c11.372 3.333 38.821 22.744 38.821 22.744l-14.607-.098s-15.685-15.98-19.999-18.92c-2.941-1.961-10.882-4.118-10.882-4.118s5 0 6.667.392Z" fill="#000"/><path d="m82.25 92.68-5.293 4.804" stroke="#000" stroke-width=".98" stroke-miterlimit="10" stroke-linecap="round" stroke-linejoin="round"/><path d="M78.034 96.306s-1.078-1.862-4.803.883c3.038-2.941 8.136-4.216 8.136-4.216l-3.333 3.334ZM129.893 89.543l-11.47 11.96-1.765-2.255 13.235-9.705Z" fill="#000"/><path d="M144.796 261.691c-1.863.098-3.824.098-5.784.098M319.981 133.854c-22.94 64.898-79.799 113.719-149.208 125.287M38.82 272.868a5 5 0 1 0 0-9.999 5 5 0 0 0 0 9.999ZM94.013 272.868a5 5 0 1 0 .001-9.999 5 5 0 0 0 0 9.999ZM106.17 225.809h34.9M80.877 118.66l25.489-.098M256.262 193.361h2.255M219.203 193.851l30.489-.392M88.426 220.613h34.9M149.207 225.809h2.059" stroke="#000" stroke-width=".98" stroke-miterlimit="10" stroke-linecap="round" stroke-linejoin="round"/><path d="m220.966 74.641-5.882 20.49M82.15 225.123l20.588-64.8 54.212-33.038M274.985 116.992l-49.311 55.291c-2.156 2.451-5.882 2.549-8.235.294l-35.978-34.214" stroke="#000" stroke-width=".49" stroke-miterlimit="10" stroke-linecap="round" stroke-linejoin="round"/><path d="M248.613 56.703h139.895s-11.96 1.177-14.901-8.43c-3.431-11.373-23.332 7.842-24.999-5.196-.784-6.47-5.686-17.94-22.058-11.372-16.371 6.568-32.449 24.704-37.056 15.49-4.608-9.216-40.881 9.508-40.881 9.508ZM237.731 56.704h-16.862s16.372-9.117 16.862 0Z" stroke="#000" stroke-width=".98" stroke-miterlimit="10" stroke-linecap="round" stroke-linejoin="round"/></svg>